<svg viewBox="0 0 1280 320" width="1280" height="320" xmlns="http://www.w3.org/2000/svg" role="img" aria-label="Brand Illustrations banner">
  <rect width="1280" height="320" fill="#16110D"/>
  <g shape-rendering="crispEdges"><rect x="182" y="61" width="11" height="11" fill="#000000"/><rect x="171" y="72" width="11" height="11" fill="#000000"/><rect x="193" y="61" width="11" height="11" fill="#000000"/><rect x="204" y="72" width="11" height="11" fill="#000000"/><rect x="105" y="72" width="11" height="11" fill="#000000"/><rect x="105" y="94" width="11" height="11" fill="#000000"/><rect x="94" y="83" width="11" height="11" fill="#000000"/><rect x="116" y="83" width="11" height="11" fill="#000000"/><rect x="171" y="83" width="11" height="11" fill="#000000"/><rect x="204" y="83" width="11" height="11" fill="#000000"/><rect x="127" y="83" width="11" height="11" fill="#000000"/><rect x="116" y="94" width="11" height="11" fill="#000000"/><rect x="138" y="94" width="11" height="11" fill="#000000"/><rect x="160" y="94" width="11" height="11" fill="#000000"/><rect x="215" y="94" width="11" height="11" fill="#000000"/><rect x="248" y="83" width="11" height="11" fill="#000000"/><rect x="237" y="94" width="11" height="11" fill="#000000"/><rect x="259" y="94" width="11" height="11" fill="#000000"/><rect x="116" y="105" width="11" height="11" fill="#000000"/><rect x="149" y="94" width="11" height="11" fill="#000000"/><rect x="226" y="94" width="11" height="11" fill="#000000"/><rect x="259" y="105" width="11" height="11" fill="#000000"/><rect x="281" y="94" width="11" height="11" fill="#000000"/><rect x="281" y="116" width="11" height="11" fill="#000000"/><rect x="270" y="105" width="11" height="11" fill="#000000"/><rect x="292" y="105" width="11" height="11" fill="#000000"/><rect x="105" y="116" width="11" height="11" fill="#000000"/><rect x="270" y="116" width="11" height="11" fill="#000000"/><rect x="94" y="116" width="11" height="11" fill="#000000"/><rect x="94" y="138" width="11" height="11" fill="#000000"/><rect x="83" y="127" width="11" height="11" fill="#000000"/><rect x="281" y="138" width="11" height="11" fill="#000000"/><rect x="292" y="127" width="11" height="11" fill="#000000"/><rect x="105" y="149" width="11" height="11" fill="#000000"/><rect x="270" y="149" width="11" height="11" fill="#000000"/><rect x="105" y="160" width="11" height="11" fill="#000000"/><rect x="270" y="160" width="11" height="11" fill="#000000"/><rect x="116" y="182" width="11" height="11" fill="#000000"/><rect x="105" y="171" width="11" height="11" fill="#000000"/><rect x="259" y="182" width="11" height="11" fill="#000000"/><rect x="270" y="171" width="11" height="11" fill="#000000"/><rect x="94" y="171" width="11" height="11" fill="#000000"/><rect x="94" y="193" width="11" height="11" fill="#000000"/><rect x="83" y="182" width="11" height="11" fill="#000000"/><rect x="105" y="182" width="11" height="11" fill="#000000"/><rect x="127" y="193" width="11" height="11" fill="#000000"/><rect x="248" y="193" width="11" height="11" fill="#000000"/><rect x="138" y="204" width="11" height="11" fill="#000000"/><rect x="171" y="204" width="11" height="11" fill="#000000"/><rect x="182" y="204" width="11" height="11" fill="#000000"/><rect x="215" y="204" width="11" height="11" fill="#000000"/><rect x="226" y="204" width="11" height="11" fill="#000000"/><rect x="237" y="215" width="11" height="11" fill="#000000"/><rect x="248" y="204" width="11" height="11" fill="#000000"/><rect x="149" y="226" width="11" height="11" fill="#000000"/><rect x="138" y="215" width="11" height="11" fill="#000000"/><rect x="160" y="226" width="11" height="11" fill="#000000"/><rect x="171" y="215" width="11" height="11" fill="#000000"/><rect x="182" y="215" width="11" height="11" fill="#000000"/><rect x="215" y="215" width="11" height="11" fill="#000000"/><rect x="270" y="204" width="11" height="11" fill="#000000"/><rect x="270" y="226" width="11" height="11" fill="#000000"/><rect x="259" y="215" width="11" height="11" fill="#000000"/><rect x="281" y="215" width="11" height="11" fill="#000000"/><rect x="193" y="237" width="11" height="11" fill="#000000"/><rect x="182" y="226" width="11" height="11" fill="#000000"/><rect x="204" y="237" width="11" height="11" fill="#000000"/><rect x="215" y="226" width="11" height="11" fill="#000000"/><rect x="182" y="72" width="11" height="11" fill="#A06BDD"/><rect x="193" y="72" width="11" height="11" fill="#A06BDD"/><rect x="105" y="83" width="11" height="11" fill="#FFD94A"/><rect x="182" y="83" width="11" height="11" fill="#A06BDD"/><rect x="193" y="83" width="11" height="11" fill="#A06BDD"/><rect x="127" y="94" width="11" height="11" fill="#A06BDD"/><rect x="171" y="94" width="11" height="11" fill="#A06BDD"/><rect x="182" y="94" width="11" height="11" fill="#A06BDD"/><rect x="193" y="94" width="11" height="11" fill="#A06BDD"/><rect x="204" y="94" width="11" height="11" fill="#A06BDD"/><rect x="248" y="94" width="11" height="11" fill="#A06BDD"/><rect x="127" y="105" width="11" height="11" fill="#A06BDD"/><rect x="138" y="105" width="11" height="11" fill="#A06BDD"/><rect x="149" y="105" width="11" height="11" fill="#A06BDD"/><rect x="160" y="105" width="11" height="11" fill="#A06BDD"/><rect x="171" y="105" width="11" height="11" fill="#A06BDD"/><rect x="182" y="105" width="11" height="11" fill="#A06BDD"/><rect x="193" y="105" width="11" height="11" fill="#A06BDD"/><rect x="204" y="105" width="11" height="11" fill="#A06BDD"/><rect x="215" y="105" width="11" height="11" fill="#A06BDD"/><rect x="226" y="105" width="11" height="11" fill="#A06BDD"/><rect x="237" y="105" width="11" height="11" fill="#A06BDD"/><rect x="248" y="105" width="11" height="11" fill="#A06BDD"/><rect x="281" y="105" width="11" height="11" fill="#5BC0D8"/><rect x="116" y="116" width="11" height="11" fill="#A06BDD"/><rect x="127" y="116" width="11" height="11" fill="#BE8FE8"/><rect x="138" y="116" width="11" height="11" fill="#BE8FE8"/><rect x="149" y="116" width="11" height="11" fill="#A06BDD"/><rect x="160" y="116" width="11" height="11" fill="#A06BDD"/><rect x="171" y="116" width="11" height="11" fill="#A06BDD"/><rect x="182" y="116" width="11" height="11" fill="#A06BDD"/><rect x="193" y="116" width="11" height="11" fill="#A06BDD"/><rect x="204" y="116" width="11" height="11" fill="#A06BDD"/><rect x="215" y="116" width="11" height="11" fill="#A06BDD"/><rect x="226" y="116" width="11" height="11" fill="#A06BDD"/><rect x="237" y="116" width="11" height="11" fill="#A06BDD"/><rect x="248" y="116" width="11" height="11" fill="#A06BDD"/><rect x="259" y="116" width="11" height="11" fill="#A06BDD"/><rect x="94" y="127" width="11" height="11" fill="#A06BDD"/><rect x="105" y="127" width="11" height="11" fill="#A06BDD"/><rect x="116" y="127" width="11" height="11" fill="#A06BDD"/><rect x="127" y="127" width="11" height="11" fill="#A06BDD"/><rect x="138" y="127" width="11" height="11" fill="#A06BDD"/><rect x="149" y="127" width="11" height="11" fill="#A06BDD"/><rect x="160" y="127" width="11" height="11" fill="#A06BDD"/><rect x="171" y="127" width="11" height="11" fill="#A06BDD"/><rect x="182" y="127" width="11" height="11" fill="#A06BDD"/><rect x="193" y="127" width="11" height="11" fill="#A06BDD"/><rect x="204" y="127" width="11" height="11" fill="#A06BDD"/><rect x="215" y="127" width="11" height="11" fill="#A06BDD"/><rect x="226" y="127" width="11" height="11" fill="#A06BDD"/><rect x="237" y="127" width="11" height="11" fill="#A06BDD"/><rect x="248" y="127" width="11" height="11" fill="#A06BDD"/><rect x="259" y="127" width="11" height="11" fill="#A06BDD"/><rect x="270" y="127" width="11" height="11" fill="#A06BDD"/><rect x="281" y="127" width="11" height="11" fill="#A06BDD"/><rect x="105" y="138" width="11" height="11" fill="#A06BDD"/><rect x="116" y="138" width="11" height="11" fill="#A06BDD"/><rect x="127" y="138" width="11" height="11" fill="#A06BDD"/><rect x="138" y="138" width="11" height="11" fill="#A06BDD"/><rect x="149" y="138" width="11" height="11" fill="#2A211C"/><rect x="160" y="138" width="11" height="11" fill="#2A211C"/><rect x="171" y="138" width="11" height="11" fill="#A06BDD"/><rect x="182" y="138" width="11" height="11" fill="#A06BDD"/><rect x="193" y="138" width="11" height="11" fill="#A06BDD"/><rect x="204" y="138" width="11" height="11" fill="#A06BDD"/><rect x="215" y="138" width="11" height="11" fill="#2A211C"/><rect x="226" y="138" width="11" height="11" fill="#2A211C"/><rect x="237" y="138" width="11" height="11" fill="#A06BDD"/><rect x="248" y="138" width="11" height="11" fill="#A06BDD"/><rect x="259" y="138" width="11" height="11" fill="#A06BDD"/><rect x="270" y="138" width="11" height="11" fill="#A06BDD"/><rect x="116" y="149" width="11" height="11" fill="#A06BDD"/><rect x="127" y="149" width="11" height="11" fill="#A06BDD"/><rect x="138" y="149" width="11" height="11" fill="#A06BDD"/><rect x="149" y="149" width="11" height="11" fill="#2A211C"/><rect x="160" y="149" width="11" height="11" fill="#2A211C"/><rect x="171" y="149" width="11" height="11" fill="#A06BDD"/><rect x="182" y="149" width="11" height="11" fill="#A06BDD"/><rect x="193" y="149" width="11" height="11" fill="#A06BDD"/><rect x="204" y="149" width="11" height="11" fill="#A06BDD"/><rect x="215" y="149" width="11" height="11" fill="#2A211C"/><rect x="226" y="149" width="11" height="11" fill="#2A211C"/><rect x="237" y="149" width="11" height="11" fill="#A06BDD"/><rect x="248" y="149" width="11" height="11" fill="#A06BDD"/><rect x="259" y="149" width="11" height="11" fill="#A06BDD"/><rect x="116" y="160" width="11" height="11" fill="#A06BDD"/><rect x="127" y="160" width="11" height="11" fill="#A06BDD"/><rect x="138" y="160" width="11" height="11" fill="#A06BDD"/><rect x="149" y="160" width="11" height="11" fill="#2A211C"/><rect x="160" y="160" width="11" height="11" fill="#2A211C"/><rect x="171" y="160" width="11" height="11" fill="#A06BDD"/><rect x="182" y="160" width="11" height="11" fill="#A06BDD"/><rect x="193" y="160" width="11" height="11" fill="#A06BDD"/><rect x="204" y="160" width="11" height="11" fill="#A06BDD"/><rect x="215" y="160" width="11" height="11" fill="#2A211C"/><rect x="226" y="160" width="11" height="11" fill="#2A211C"/><rect x="237" y="160" width="11" height="11" fill="#A06BDD"/><rect x="248" y="160" width="11" height="11" fill="#A06BDD"/><rect x="259" y="160" width="11" height="11" fill="#A06BDD"/><rect x="116" y="171" width="11" height="11" fill="#A06BDD"/><rect x="127" y="171" width="11" height="11" fill="#A06BDD"/><rect x="138" y="171" width="11" height="11" fill="#A06BDD"/><rect x="149" y="171" width="11" height="11" fill="#A06BDD"/><rect x="160" y="171" width="11" height="11" fill="#A06BDD"/><rect x="171" y="171" width="11" height="11" fill="#A06BDD"/><rect x="182" y="171" width="11" height="11" fill="#A06BDD"/><rect x="193" y="171" width="11" height="11" fill="#A06BDD"/><rect x="204" y="171" width="11" height="11" fill="#A06BDD"/><rect x="215" y="171" width="11" height="11" fill="#A06BDD"/><rect x="226" y="171" width="11" height="11" fill="#A06BDD"/><rect x="237" y="171" width="11" height="11" fill="#A06BDD"/><rect x="248" y="171" width="11" height="11" fill="#A06BDD"/><rect x="259" y="171" width="11" height="11" fill="#A06BDD"/><rect x="94" y="182" width="11" height="11" fill="#5BC0D8"/><rect x="127" y="182" width="11" height="11" fill="#A06BDD"/><rect x="138" y="182" width="11" height="11" fill="#A06BDD"/><rect x="149" y="182" width="11" height="11" fill="#A06BDD"/><rect x="160" y="182" width="11" height="11" fill="#A06BDD"/><rect x="171" y="182" width="11" height="11" fill="#A06BDD"/><rect x="182" y="182" width="11" height="11" fill="#A06BDD"/><rect x="193" y="182" width="11" height="11" fill="#A06BDD"/><rect x="204" y="182" width="11" height="11" fill="#A06BDD"/><rect x="215" y="182" width="11" height="11" fill="#A06BDD"/><rect x="226" y="182" width="11" height="11" fill="#A06BDD"/><rect x="237" y="182" width="11" height="11" fill="#A06BDD"/><rect x="248" y="182" width="11" height="11" fill="#A06BDD"/><rect x="138" y="193" width="11" height="11" fill="#A06BDD"/><rect x="149" y="193" width="11" height="11" fill="#A06BDD"/><rect x="160" y="193" width="11" height="11" fill="#A06BDD"/><rect x="171" y="193" width="11" height="11" fill="#A06BDD"/><rect x="182" y="193" width="11" height="11" fill="#A06BDD"/><rect x="193" y="193" width="11" height="11" fill="#A06BDD"/><rect x="204" y="193" width="11" height="11" fill="#A06BDD"/><rect x="215" y="193" width="11" height="11" fill="#A06BDD"/><rect x="226" y="193" width="11" height="11" fill="#A06BDD"/><rect x="237" y="193" width="11" height="11" fill="#A06BDD"/><rect x="149" y="204" width="11" height="11" fill="#A06BDD"/><rect x="160" y="204" width="11" height="11" fill="#A06BDD"/><rect x="193" y="204" width="11" height="11" fill="#A06BDD"/><rect x="204" y="204" width="11" height="11" fill="#A06BDD"/><rect x="237" y="204" width="11" height="11" fill="#A06BDD"/><rect x="149" y="215" width="11" height="11" fill="#A06BDD"/><rect x="160" y="215" width="11" height="11" fill="#A06BDD"/><rect x="193" y="215" width="11" height="11" fill="#A06BDD"/><rect x="204" y="215" width="11" height="11" fill="#A06BDD"/><rect x="270" y="215" width="11" height="11" fill="#EC6F92"/><rect x="193" y="226" width="11" height="11" fill="#A06BDD"/><rect x="204" y="226" width="11" height="11" fill="#A06BDD"/></g>
  <text x="378" y="108" font-family="ui-monospace,Consolas,'JetBrains Mono',monospace" font-size="15" letter-spacing="4" fill="#7A6E60">GATTYWORKS &#183; REPO MASCOT</text>
  <text x="378" y="168" font-family="ui-monospace,Consolas,'JetBrains Mono',monospace" font-size="52" font-weight="700" fill="#D97757">Brand Illustrations</text>
  <rect x="378" y="188" width="72" height="4" fill="#D97757"/>
  <text x="378" y="228" font-family="ui-monospace,Consolas,'JetBrains Mono',monospace" font-size="20" fill="#A5988A">a paint splat that got up and walked</text>
  <text x="378" y="266" font-family="ui-monospace,Consolas,'JetBrains Mono',monospace" font-size="15" fill="#7A6E60">meet Doodle &#183; gattyworks/brand-illustrations</text>
</svg>