<svg viewBox="0 0 1280 320" width="1280" height="320" xmlns="http://www.w3.org/2000/svg" role="img" aria-label="Brand Illustrations banner">
  <rect width="1280" height="320" fill="#FFFFFF"/>
  <g shape-rendering="crispEdges"><rect x="182" y="61" width="11" height="11" fill="#000000"/><rect x="171" y="72" width="11" height="11" fill="#000000"/><rect x="193" y="61" width="11" height="11" fill="#000000"/><rect x="204" y="72" width="11" height="11" fill="#000000"/><rect x="105" y="72" width="11" height="11" fill="#000000"/><rect x="105" y="94" width="11" height="11" fill="#000000"/><rect x="94" y="83" width="11" height="11" fill="#000000"/><rect x="116" y="83" width="11" height="11" fill="#000000"/><rect x="171" y="83" width="11" height="11" fill="#000000"/><rect x="204" y="83" width="11" height="11" fill="#000000"/><rect x="127" y="83" width="11" height="11" fill="#000000"/><rect x="116" y="94" width="11" height="11" fill="#000000"/><rect x="138" y="94" width="11" height="11" fill="#000000"/><rect x="160" y="94" width="11" height="11" fill="#000000"/><rect x="215" y="94" width="11" height="11" fill="#000000"/><rect x="248" y="83" width="11" height="11" fill="#000000"/><rect x="237" y="94" width="11" height="11" fill="#000000"/><rect x="259" y="94" width="11" height="11" fill="#000000"/><rect x="116" y="105" width="11" height="11" fill="#000000"/><rect x="149" y="94" width="11" height="11" fill="#000000"/><rect x="226" y="94" width="11" height="11" fill="#000000"/><rect x="259" y="105" width="11" height="11" fill="#000000"/><rect x="281" y="94" width="11" height="11" fill="#000000"/><rect x="281" y="116" width="11" height="11" fill="#000000"/><rect x="270" y="105" width="11" height="11" fill="#000000"/><rect x="292" y="105" width="11" height="11" fill="#000000"/><rect x="105" y="116" width="11" height="11" fill="#000000"/><rect x="270" y="116" width="11" height="11" fill="#000000"/><rect x="94" y="116" width="11" height="11" fill="#000000"/><rect x="94" y="138" width="11" height="11" fill="#000000"/><rect x="83" y="127" width="11" height="11" fill="#000000"/><rect x="281" y="138" width="11" height="11" fill="#000000"/><rect x="292" y="127" width="11" height="11" fill="#000000"/><rect x="105" y="149" width="11" height="11" fill="#000000"/><rect x="270" y="149" width="11" height="11" fill="#000000"/><rect x="105" y="160" width="11" height="11" fill="#000000"/><rect x="270" y="160" width="11" height="11" fill="#000000"/><rect x="116" y="182" width="11" height="11" fill="#000000"/><rect x="105" y="171" width="11" height="11" fill="#000000"/><rect x="259" y="182" width="11" height="11" fill="#000000"/><rect x="270" y="171" width="11" height="11" fill="#000000"/><rect x="94" y="171" width="11" height="11" fill="#000000"/><rect x="94" y="193" width="11" height="11" fill="#000000"/><rect x="83" y="182" width="11" height="11" fill="#000000"/><rect x="105" y="182" width="11" height="11" fill="#000000"/><rect x="127" y="193" width="11" height="11" fill="#000000"/><rect x="248" y="193" width="11" height="11" fill="#000000"/><rect x="138" y="204" width="11" height="11" fill="#000000"/><rect x="171" y="204" width="11" height="11" fill="#000000"/><rect x="182" y="204" width="11" height="11" fill="#000000"/><rect x="215" y="204" width="11" height="11" fill="#000000"/><rect x="226" y="204" width="11" height="11" fill="#000000"/><rect x="237" y="215" width="11" height="11" fill="#000000"/><rect x="248" y="204" width="11" height="11" fill="#000000"/><rect x="149" y="226" width="11" height="11" fill="#000000"/><rect x="138" y="215" width="11" height="11" fill="#000000"/><rect x="160" y="226" width="11" height="11" fill="#000000"/><rect x="171" y="215" width="11" height="11" fill="#000000"/><rect x="182" y="215" width="11" height="11" fill="#000000"/><rect x="215" y="215" width="11" height="11" fill="#000000"/><rect x="270" y="204" width="11" height="11" fill="#000000"/><rect x="270" y="226" width="11" height="11" fill="#000000"/><rect x="259" y="215" width="11" height="11" fill="#000000"/><rect x="281" y="215" width="11" height="11" fill="#000000"/><rect x="193" y="237" width="11" height="11" fill="#000000"/><rect x="182" y="226" width="11" height="11" fill="#000000"/><rect x="204" y="237" width="11" height="11" fill="#000000"/><rect x="215" y="226" width="11" height="11" fill="#000000"/><rect x="182" y="72" width="11" height="11" fill="#A06BDD"/><rect x="193" y="72" width="11" height="11" fill="#A06BDD"/><rect x="105" y="83" width="11" height="11" fill="#FFD94A"/><rect x="182" y="83" width="11" height="11" fill="#A06BDD"/><rect x="193" y="83" width="11" height="11" fill="#A06BDD"/><rect x="127" y="94" width="11" height="11" fill="#A06BDD"/><rect x="171" y="94" width="11" height="11" fill="#A06BDD"/><rect x="182" y="94" width="11" height="11" fill="#A06BDD"/><rect x="193" y="94" width="11" height="11" fill="#A06BDD"/><rect x="204" y="94" width="11" height="11" fill="#A06BDD"/><rect x="248" y="94" width="11" height="11" fill="#A06BDD"/><rect x="127" y="105" width="11" height="11" fill="#A06BDD"/><rect x="138" y="105" width="11" height="11" fill="#A06BDD"/><rect x="149" y="105" width="11" height="11" fill="#A06BDD"/><rect x="160" y="105" width="11" height="11" fill="#A06BDD"/><rect x="171" y="105" width="11" height="11" fill="#A06BDD"/><rect x="182" y="105" width="11" height="11" fill="#A06BDD"/><rect x="193" y="105" width="11" height="11" fill="#A06BDD"/><rect x="204" y="105" width="11" height="11" fill="#A06BDD"/><rect x="215" y="105" width="11" height="11" fill="#A06BDD"/><rect x="226" y="105" width="11" height="11" fill="#A06BDD"/><rect x="237" y="105" width="11" height="11" fill="#A06BDD"/><rect x="248" y="105" width="11" height="11" fill="#A06BDD"/><rect x="281" y="105" width="11" height="11" fill="#5BC0D8"/><rect x="116" y="116" width="11" height="11" fill="#A06BDD"/><rect x="127" y="116" width="11" height="11" fill="#BE8FE8"/><rect x="138" y="116" width="11" height="11" fill="#BE8FE8"/><rect x="149" y="116" width="11" height="11" fill="#A06BDD"/><rect x="160" y="116" width="11" height="11" fill="#A06BDD"/><rect x="171" y="116" width="11" height="11" fill="#A06BDD"/><rect x="182" y="116" width="11" height="11" fill="#A06BDD"/><rect x="193" y="116" width="11" height="11" fill="#A06BDD"/><rect x="204" y="116" width="11" height="11" fill="#A06BDD"/><rect x="215" y="116" width="11" height="11" fill="#A06BDD"/><rect x="226" y="116" width="11" height="11" fill="#A06BDD"/><rect x="237" y="116" width="11" height="11" fill="#A06BDD"/><rect x="248" y="116" width="11" height="11" fill="#A06BDD"/><rect x="259" y="116" width="11" height="11" fill="#A06BDD"/><rect x="94" y="127" width="11" height="11" fill="#A06BDD"/><rect x="105" y="127" width="11" height="11" fill="#A06BDD"/><rect x="116" y="127" width="11" height="11" fill="#A06BDD"/><rect x="127" y="127" width="11" height="11" fill="#A06BDD"/><rect x="138" y="127" width="11" height="11" fill="#A06BDD"/><rect x="149" y="127" width="11" height="11" fill="#A06BDD"/><rect x="160" y="127" width="11" height="11" fill="#A06BDD"/><rect x="171" y="127" width="11" height="11" fill="#A06BDD"/><rect x="182" y="127" width="11" height="11" fill="#A06BDD"/><rect x="193" y="127" width="11" height="11" fill="#A06BDD"/><rect x="204" y="127" width="11" height="11" fill="#A06BDD"/><rect x="215" y="127" width="11" height="11" fill="#A06BDD"/><rect x="226" y="127" width="11" height="11" fill="#A06BDD"/><rect x="237" y="127" width="11" height="11" fill="#A06BDD"/><rect x="248" y="127" width="11" height="11" fill="#A06BDD"/><rect x="259" y="127" width="11" height="11" fill="#A06BDD"/><rect x="270" y="127" width="11" height="11" fill="#A06BDD"/><rect x="281" y="127" width="11" height="11" fill="#A06BDD"/><rect x="105" y="138" width="11" height="11" fill="#A06BDD"/><rect x="116" y="138" width="11" height="11" fill="#A06BDD"/><rect x="127" y="138" width="11" height="11" fill="#A06BDD"/><rect x="138" y="138" width="11" height="11" fill="#A06BDD"/><rect x="149" y="138" width="11" height="11" fill="#2A211C"/><rect x="160" y="138" width="11" height="11" fill="#2A211C"/><rect x="171" y="138" width="11" height="11" fill="#A06BDD"/><rect x="182" y="138" width="11" height="11" fill="#A06BDD"/><rect x="193" y="138" width="11" height="11" fill="#A06BDD"/><rect x="204" y="138" width="11" height="11" fill="#A06BDD"/><rect x="215" y="138" width="11" height="11" fill="#2A211C"/><rect x="226" y="138" width="11" height="11" fill="#2A211C"/><rect x="237" y="138" width="11" height="11" fill="#A06BDD"/><rect x="248" y="138" width="11" height="11" fill="#A06BDD"/><rect x="259" y="138" width="11" height="11" fill="#A06BDD"/><rect x="270" y="138" width="11" height="11" fill="#A06BDD"/><rect x="116" y="149" width="11" height="11" fill="#A06BDD"/><rect x="127" y="149" width="11" height="11" fill="#A06BDD"/><rect x="138" y="149" width="11" height="11" fill="#A06BDD"/><rect x="149" y="149" width="11" height="11" fill="#2A211C"/><rect x="160" y="149" width="11" height="11" fill="#2A211C"/><rect x="171" y="149" width="11" height="11" fill="#A06BDD"/><rect x="182" y="149" width="11" height="11" fill="#A06BDD"/><rect x="193" y="149" width="11" height="11" fill="#A06BDD"/><rect x="204" y="149" width="11" height="11" fill="#A06BDD"/><rect x="215" y="149" width="11" height="11" fill="#2A211C"/><rect x="226" y="149" width="11" height="11" fill="#2A211C"/><rect x="237" y="149" width="11" height="11" fill="#A06BDD"/><rect x="248" y="149" width="11" height="11" fill="#A06BDD"/><rect x="259" y="149" width="11" height="11" fill="#A06BDD"/><rect x="116" y="160" width="11" height="11" fill="#A06BDD"/><rect x="127" y="160" width="11" height="11" fill="#A06BDD"/><rect x="138" y="160" width="11" height="11" fill="#A06BDD"/><rect x="149" y="160" width="11" height="11" fill="#2A211C"/><rect x="160" y="160" width="11" height="11" fill="#2A211C"/><rect x="171" y="160" width="11" height="11" fill="#A06BDD"/><rect x="182" y="160" width="11" height="11" fill="#A06BDD"/><rect x="193" y="160" width="11" height="11" fill="#A06BDD"/><rect x="204" y="160" width="11" height="11" fill="#A06BDD"/><rect x="215" y="160" width="11" height="11" fill="#2A211C"/><rect x="226" y="160" width="11" height="11" fill="#2A211C"/><rect x="237" y="160" width="11" height="11" fill="#A06BDD"/><rect x="248" y="160" width="11" height="11" fill="#A06BDD"/><rect x="259" y="160" width="11" height="11" fill="#A06BDD"/><rect x="116" y="171" width="11" height="11" fill="#A06BDD"/><rect x="127" y="171" width="11" height="11" fill="#A06BDD"/><rect x="138" y="171" width="11" height="11" fill="#A06BDD"/><rect x="149" y="171" width="11" height="11" fill="#A06BDD"/><rect x="160" y="171" width="11" height="11" fill="#A06BDD"/><rect x="171" y="171" width="11" height="11" fill="#A06BDD"/><rect x="182" y="171" width="11" height="11" fill="#A06BDD"/><rect x="193" y="171" width="11" height="11" fill="#A06BDD"/><rect x="204" y="171" width="11" height="11" fill="#A06BDD"/><rect x="215" y="171" width="11" height="11" fill="#A06BDD"/><rect x="226" y="171" width="11" height="11" fill="#A06BDD"/><rect x="237" y="171" width="11" height="11" fill="#A06BDD"/><rect x="248" y="171" width="11" height="11" fill="#A06BDD"/><rect x="259" y="171" width="11" height="11" fill="#A06BDD"/><rect x="94" y="182" width="11" height="11" fill="#5BC0D8"/><rect x="127" y="182" width="11" height="11" fill="#A06BDD"/><rect x="138" y="182" width="11" height="11" fill="#A06BDD"/><rect x="149" y="182" width="11" height="11" fill="#A06BDD"/><rect x="160" y="182" width="11" height="11" fill="#A06BDD"/><rect x="171" y="182" width="11" height="11" fill="#A06BDD"/><rect x="182" y="182" width="11" height="11" fill="#A06BDD"/><rect x="193" y="182" width="11" height="11" fill="#A06BDD"/><rect x="204" y="182" width="11" height="11" fill="#A06BDD"/><rect x="215" y="182" width="11" height="11" fill="#A06BDD"/><rect x="226" y="182" width="11" height="11" fill="#A06BDD"/><rect x="237" y="182" width="11" height="11" fill="#A06BDD"/><rect x="248" y="182" width="11" height="11" fill="#A06BDD"/><rect x="138" y="193" width="11" height="11" fill="#A06BDD"/><rect x="149" y="193" width="11" height="11" fill="#A06BDD"/><rect x="160" y="193" width="11" height="11" fill="#A06BDD"/><rect x="171" y="193" width="11" height="11" fill="#A06BDD"/><rect x="182" y="193" width="11" height="11" fill="#A06BDD"/><rect x="193" y="193" width="11" height="11" fill="#A06BDD"/><rect x="204" y="193" width="11" height="11" fill="#A06BDD"/><rect x="215" y="193" width="11" height="11" fill="#A06BDD"/><rect x="226" y="193" width="11" height="11" fill="#A06BDD"/><rect x="237" y="193" width="11" height="11" fill="#A06BDD"/><rect x="149" y="204" width="11" height="11" fill="#A06BDD"/><rect x="160" y="204" width="11" height="11" fill="#A06BDD"/><rect x="193" y="204" width="11" height="11" fill="#A06BDD"/><rect x="204" y="204" width="11" height="11" fill="#A06BDD"/><rect x="237" y="204" width="11" height="11" fill="#A06BDD"/><rect x="149" y="215" width="11" height="11" fill="#A06BDD"/><rect x="160" y="215" width="11" height="11" fill="#A06BDD"/><rect x="193" y="215" width="11" height="11" fill="#A06BDD"/><rect x="204" y="215" width="11" height="11" fill="#A06BDD"/><rect x="270" y="215" width="11" height="11" fill="#EC6F92"/><rect x="193" y="226" width="11" height="11" fill="#A06BDD"/><rect x="204" y="226" width="11" height="11" fill="#A06BDD"/></g>
  <text x="378" y="80" font-family="ui-monospace,Consolas,'JetBrains Mono',monospace" font-size="13" letter-spacing="4" fill="#8A8F98">GATTYWORKS · CREATIVE</text>
  <text x="378" y="138" font-family="ui-monospace,Consolas,'JetBrains Mono',monospace" font-size="46" font-weight="700" fill="#00ADB5">Brand Illustrations</text>
  <rect x="378" y="156" width="72" height="4" fill="#00ADB5"/>
  <text x="378" y="194" font-family="ui-monospace,Consolas,'JetBrains Mono',monospace" font-size="20" fill="#0A0A0A">Turn concepts into fun brand illustrations.</text>
  <text x="378" y="224" font-family="ui-monospace,Consolas,'JetBrains Mono',monospace" font-size="15" fill="#52525B">A dynamic cast of characters (Terra, Flora, Aqua, Ignis, Aero) plus AI.</text>
  <rect x="378" y="246" width="114" height="30" rx="3" fill="none" stroke="#D4D4D8" stroke-width="1.5"/><text x="388" y="266" font-family="ui-monospace,Consolas,'JetBrains Mono',monospace" font-size="13" fill="#0A0A0A">5 characters</text><rect x="502" y="246" width="153" height="30" rx="3" fill="none" stroke="#D4D4D8" stroke-width="1.5"/><text x="512" y="266" font-family="ui-monospace,Consolas,'JetBrains Mono',monospace" font-size="13" fill="#0A0A0A">Whiteboard doodle</text><rect x="665" y="246" width="90" height="30" rx="3" fill="none" stroke="#D4D4D8" stroke-width="1.5"/><text x="675" y="266" font-family="ui-monospace,Consolas,'JetBrains Mono',monospace" font-size="13" fill="#0A0A0A">Style DNA</text><rect x="765" y="246" width="98" height="30" rx="3" fill="none" stroke="#D4D4D8" stroke-width="1.5"/><text x="775" y="266" font-family="ui-monospace,Consolas,'JetBrains Mono',monospace" font-size="13" fill="#0A0A0A">AI prompts</text>
  <text x="378" y="304" font-family="ui-monospace,Consolas,'JetBrains Mono',monospace" font-size="12.5" fill="#8A8F98">Doodle is this repo's mascot · gattyworks/brand-illustrations</text>
</svg>